<svg height="496pt" viewBox="0 -64 496 496" width="496pt" xmlns="http://www.w3.org/2000/svg"><path d="m472 56h-216l-48-48h-184c-8.835938 0-16 7.164062-16 16v320c0 8.835938 7.164062 16 16 16h448c8.835938 0 16-7.164062 16-16v-272c0-8.835938-7.164062-16-16-16zm0 0" fill="#57a4ff"/><path d="m472 48h-212.6875l-45.65625-45.65625c-1.5-1.5-3.535156-2.34375-5.65625-2.34375h-184c-13.253906 0-24 10.746094-24 24v320c0 13.253906 10.746094 24 24 24h448c13.253906 0 24-10.746094 24-24v-272c0-13.253906-10.746094-24-24-24zm8 296c0 4.417969-3.582031 8-8 8h-448c-4.417969 0-8-3.582031-8-8v-320c0-4.417969 3.582031-8 8-8h180.6875l45.65625 45.65625c1.5 1.5 3.535156 2.34375 5.65625 2.34375h216c4.417969 0 8 3.582031 8 8zm0 0" fill="#004fac"/></svg>