<svg xmlns="http://www.w3.org/2000/svg" xmlns:xlink="http://www.w3.org/1999/xlink" width="1920" height="90" viewBox="0 0 1920 90"><defs><filter id="a" x="1461" y="3" width="86" height="86" filterUnits="userSpaceOnUse"><feOffset input="SourceAlpha"/><feGaussianBlur stdDeviation="5" result="b"/><feFlood flood-opacity="0.102"/><feComposite operator="in" in2="b"/><feComposite in="SourceGraphic"/></filter><filter id="c" x="1461" y="3" width="86" height="86" filterUnits="userSpaceOnUse"><feOffset input="SourceAlpha"/><feGaussianBlur stdDeviation="5" result="d"/><feFlood flood-opacity="0.102"/><feComposite operator="in" in2="d"/><feComposite in="SourceGraphic"/></filter><clipPath id="e"><g transform="matrix(1, 0, 0, 1, 0, 0)" filter="url(#a)"><circle cx="28" cy="28" r="28" transform="translate(1475 18)" fill="#fff"/></g></clipPath></defs><g transform="translate(1)"><rect width="1920" height="90" transform="translate(-1)" fill="#fff"/><g transform="translate(313.886)"><text transform="translate(88 55)" fill="#3c50e0" font-size="28" font-family="SegoeUI, Segoe UI"><tspan x="0" y="0">Memory.log</tspan></text><path d="M-185.479,41.731s-1.39-13.661,15.221-12.876c8.7.411,11.665,7.061,10.715,13.566-.8,5.517-4.128,5.379-5.288,9.933s2.424,7.743,1.257,8.7-13.047.891-14.606.453-1.058-1.44-.782-2.894a24.8,24.8,0,0,0,.259-3.771s-4.276.715-5.349.464-1.295-.427-1.674-2.37A17.847,17.847,0,0,1-185.985,49a8.209,8.209,0,0,1-2.667-1.058C-189.319,47.33-188.652,46.56-185.479,41.731Z" transform="translate(232 0.568)" fill="#3c50e0"/></g><g transform="translate(-315.203 -1.655)"><g transform="translate(1652.203 25.655)" fill="none" stroke="#3c50e0" stroke-width="2"><rect width="110" height="44" rx="22" stroke="none"/><rect x="1" y="1" width="108" height="42" rx="21" fill="none"/></g><text transform="translate(1707.203 55.655)" fill="#3c50e0" font-size="18" font-family="MalgunGothic, Malgun Gothic"><tspan x="-36" y="0">작성하기</tspan></text></g><g transform="matrix(1, 0, 0, 1, -1, 0)" filter="url(#c)"><circle cx="28" cy="28" r="28" transform="translate(1476 18)" fill="#5669f3"/></g><g clip-path="url(#e)"><circle cx="11" cy="11" r="11" transform="translate(1492 30)" fill="#d6dbff"/><ellipse cx="20" cy="13" rx="20" ry="13" transform="translate(1483 52)" fill="#d6dbff"/><path d="M1494.711,48.867s2,.8,2,2.536a1.538,1.538,0,0,1-1.632,1.65h6.648V49.662Z" transform="translate(2.289)" fill="#d6dbff"/><path d="M1501.725,48.867s-2,.8-2,2.536a1.538,1.538,0,0,0,1.632,1.65h-6.648V49.662Z" transform="translate(7.289)" fill="#d6dbff"/></g><g transform="translate(-3 1)"><circle cx="1.5" cy="1.5" r="1.5" transform="translate(1500 38)" fill="#5669f3"/><circle cx="1.5" cy="1.5" r="1.5" transform="translate(1509 38)" fill="#5669f3"/><path d="M7350.071,2762.877a5.7,5.7,0,0,0,2.327.622,5.8,5.8,0,0,0,2.341-.622" transform="translate(-5846.448 -2720)" fill="none" stroke="#5669f3" stroke-linecap="round" stroke-width="1.4"/></g><path d="M7,0l7,6H0Z" transform="translate(1561 48) rotate(180)" fill="#b9b9b9"/></g></svg>