<svg id="like" xmlns="http://www.w3.org/2000/svg" width="16.027" height="14.135" viewBox="0 0 16.027 14.135">
  <g id="그룹_1" data-name="그룹 1">
    <g id="패스_3" data-name="패스 3" transform="translate(0.007 -30)" fill="none">
      <path d="M11.758,30a3.791,3.791,0,0,0-2.367.819,5.393,5.393,0,0,0-1.385,1.665,5.392,5.392,0,0,0-1.385-1.666A3.791,3.791,0,0,0,4.254,30,4.346,4.346,0,0,0,0,34.613C0,37.454,2.282,39.4,5.735,42.34c.587.5,1.251,1.066,1.944,1.671a.5.5,0,0,0,.659,0c.686-.6,1.355-1.171,1.944-1.671,3.448-2.942,5.729-4.887,5.729-7.727A4.346,4.346,0,0,0,11.758,30Z" stroke="none"/>
      <path d="M 4.269444465637207 30.99997711181641 L 4.265392303466797 30.99998474121094 C 3.361210823059082 31.01972198486328 2.491692543029785 31.41202163696289 1.87856388092041 32.07708740234375 C 1.263633728027344 32.74410629272461 0.9430942535400391 33.64597702026367 0.9991340637207031 34.55144500732422 L 1.001044273376465 34.58229827880859 L 1.001044273376465 34.61321640014648 C 1.001044273376465 36.99193572998047 3.026634216308594 38.71827697753906 6.383434295654297 41.57917785644531 C 6.877326965332031 41.99989700317383 7.426703453063965 42.46787643432617 8.007424354553223 42.97140121459961 C 8.569429397583008 42.48198699951172 9.111537933349609 42.02199554443359 9.599204063415527 41.60819625854492 L 9.63271427154541 41.57976531982422 L 9.643263816833496 41.57076644897461 C 12.99071407318115 38.71404647827148 15.01122379302979 36.98974609375 15.01122379302979 34.61322784423828 L 15.01122379302979 34.58231735229492 L 15.01313400268555 34.55146789550781 C 15.06916427612305 33.64597702026367 14.74862384796143 32.74409866333008 14.13370418548584 32.07708740234375 C 13.52057552337646 31.41202163696289 12.65097713470459 31.01972198486328 11.74679565429688 30.99998092651367 L 11.74423408508301 30.99997711181641 C 11.11878776550293 30.99997711181641 10.50429916381836 31.2135124206543 10.01360702514648 31.60136032104492 C 9.548112869262695 31.97431945800781 9.169286727905273 32.43007278442383 8.887693405151367 32.95592880249023 L 8.005654335021973 34.60311508178711 L 7.124354362487793 32.95552825927734 C 6.842823028564453 32.42919540405273 6.463922500610352 31.97308731079102 5.998172760009766 31.59983444213867 C 5.507827758789063 31.21297454833984 4.894038200378418 30.99997711181641 4.269444465637207 30.99997711181641 M 4.269449234008789 29.99997711181641 C 5.122881889343262 29.99997711181641 5.951664924621582 30.28803634643555 6.621253967285156 30.81766510009766 C 7.190854072570801 31.27364730834961 7.661993980407715 31.84049606323242 8.006134033203125 32.48386764526367 C 8.350423812866211 31.84091567993164 8.821554183959961 31.27447509765625 9.391014099121094 30.81880569458008 C 10.06086540222168 30.28844451904297 10.8901195526123 29.99998092651367 11.74423599243164 29.99998092651367 C 11.74890041351318 29.99998092651367 11.75356769561768 29.9999885559082 11.75823402404785 30.00000762939453 C 12.94250392913818 30.02298736572266 14.06606388092041 30.52839660644531 14.86893367767334 31.39926528930664 C 15.67179393768311 32.27013778686523 16.08438491821289 33.43099594116211 16.0112247467041 34.61322784423828 C 16.0112247467041 37.45388793945313 13.72977447509766 39.39797592163086 10.28186416625977 42.34042739868164 C 9.692924499511719 42.84016418457031 9.023923873901367 43.40738677978516 8.337774276733398 44.01120758056641 C 8.243429183959961 44.09354400634766 8.125931739807129 44.13470840454102 8.008429527282715 44.13470840454102 C 7.890927314758301 44.13470840454102 7.773419380187988 44.09353637695313 7.679074287414551 44.01119613647461 C 6.986054420471191 43.40624618530273 6.321634292602539 42.84016418457031 5.734973907470703 42.34042739868164 C 2.282493591308594 39.39798736572266 0.001043319702148438 37.45388793945313 0.001043319702148438 34.61321640014648 C -0.07212638854980469 33.43099594116211 0.3404741287231445 32.27013778686523 1.14333438873291 31.39926528930664 C 1.94620418548584 30.52839660644531 3.069764137268066 30.02298736572266 4.254034042358398 30.00000762939453 C 4.259223937988281 29.99998474121094 4.264260292053223 29.99997711181641 4.269449234008789 29.99997711181641 Z" stroke="none" fill="#3c50e0"/>
    </g>
  </g>
</svg>
