<svg xmlns="http://www.w3.org/2000/svg" width="31.664" height="27.926" viewBox="0 0 31.664 27.926">
  <g id="like" transform="translate(0 0)">
    <g id="그룹_1" data-name="그룹 1" transform="translate(0.001 0)">
      <g id="패스_3" data-name="패스 3" transform="translate(0.007 -30)" fill="none">
        <path d="M23.238,30a7.49,7.49,0,0,0-4.677,1.618,10.655,10.655,0,0,0-2.736,3.29,10.653,10.653,0,0,0-2.736-3.292A7.49,7.49,0,0,0,8.412,30a8.586,8.586,0,0,0-8.4,9.114c0,5.612,4.507,9.453,11.328,15.266,1.159.987,2.472,2.106,3.841,3.3a.99.99,0,0,0,1.3,0c1.356-1.193,2.677-2.314,3.841-3.3,6.812-5.813,11.319-9.654,11.319-15.266A8.586,8.586,0,0,0,23.238,30Z" stroke="none"/>
        <path d="M 8.442094802856445 31.99997329711914 L 8.434318542480469 31.9999885559082 C 6.654642105102539 32.03893661499023 4.943216323852539 32.81112289428711 3.736406326293945 34.12015533447266 C 2.525985717773438 35.4330940246582 1.895025253295898 37.20834350585938 2.005325317382813 38.99070358276367 L 2.009145736694336 39.05241394042969 L 2.009145736694336 39.11423492431641 C 2.009145736694336 41.25014495849609 2.825075149536133 43.18723297119141 4.654745101928711 45.39510345458984 C 6.523155212402344 47.64972305297852 9.354326248168945 50.0626335144043 12.63445472717285 52.85819244384766 C 13.60613250732422 53.68591690063477 14.68645095825195 54.60617828369141 15.82710456848145 55.59505462646484 C 16.93165969848633 54.63339233398438 17.99688720703125 53.72952651977539 18.95564651489258 52.9160041809082 L 19.02472114562988 52.85738754272461 L 19.04327583312988 52.841552734375 C 22.31261444091797 50.05149459838867 25.13611602783203 47.64191436767578 27.00013542175293 45.38959503173828 C 28.82586479187012 43.18353271484375 29.64004516601563 41.24814605712891 29.64004516601563 39.11425399780273 L 29.64004516601563 39.05243301391602 L 29.64386558532715 38.99072265625 C 29.75416564941406 37.20835494995117 29.12320518493652 35.43310546875 27.91278457641602 34.12016296386719 C 26.7060489654541 32.81121063232422 24.99470901489258 32.03903961181641 23.21515274047852 31.99999618530273 L 23.20965576171875 31.99998474121094 C 21.97962379455566 31.99998474121094 20.7711067199707 32.41994857788086 19.80598831176758 33.1827278137207 C 18.88884353637695 33.91751480102539 18.14254760742188 34.81536865234375 17.58772659301758 35.85147476196289 L 15.82361507415771 39.14585494995117 L 14.06103515625 35.85066604614258 C 13.50668716430664 34.81428909301758 12.76069450378418 33.91608047485352 11.84380149841309 33.18095397949219 C 10.87910270690918 32.41930770874023 9.671281814575195 31.99997329711914 8.442094802856445 31.99997329711914 M 8.442098617553711 29.99997329711914 C 10.12830924987793 29.99997329711914 11.76555633544922 30.56901168823242 13.08852577209473 31.61547470092773 C 14.21387481689453 32.5163459777832 15.14468574523926 33.63623428344727 15.82459545135498 34.90734481811523 C 16.50480651855469 33.6370849609375 17.43559646606445 32.51797485351563 18.56067657470703 31.61772537231445 C 19.88415908813477 30.56982421875 21.52235221862793 29.99992370605469 23.20992279052734 29.99998474121094 C 23.21903610229492 29.99998474121094 23.22840881347656 30 23.23752593994141 30.00003433227539 C 25.57724571228027 30.04544448852539 27.79703521728516 31.04396438598633 29.38324546813965 32.76452255249023 C 30.96944618225098 34.48507308959961 31.78458595275879 36.778564453125 31.64004516601563 39.11425399780273 C 31.64004516601563 44.72648620605469 27.13264465332031 48.56736373901367 20.32070541381836 54.38068389892578 C 19.15713500976563 55.36801528930664 17.83541488647461 56.48863220214844 16.47980499267578 57.68159484863281 C 16.29341125488281 57.84426116943359 16.0612735748291 57.92559051513672 15.82912635803223 57.92559051513672 C 15.59697914123535 57.92559051513672 15.36482048034668 57.8442497253418 15.17842483520508 57.68157196044922 C 13.80925559997559 56.48638153076172 12.4965763092041 55.36801528930664 11.33752632141113 54.38068389892578 C 4.516546249389648 48.56737518310547 0.009145736694335938 44.72648620605469 0.009145736694335938 39.11423492431641 C -0.1353950500488281 36.778564453125 0.6797447204589844 34.48506546020508 2.265945434570313 32.7645149230957 C 3.852155685424805 31.04395294189453 6.071945190429688 30.04543304443359 8.411664962768555 30.00003433227539 C 8.421815872192383 29.99999237060547 8.431951522827148 29.99997329711914 8.442098617553711 29.99997329711914 Z" stroke="none" fill="#3c50e0"/>
      </g>
    </g>
  </g>
</svg>
