<svg xmlns="http://www.w3.org/2000/svg" width="277" height="314.482" viewBox="0 0 277 314.482">
  <g id="lock" transform="matrix(0.999, 0.035, -0.035, 0.999, -800.259, -505.653)">
    <ellipse id="타원_18" data-name="타원 18" cx="138.5" cy="43.5" rx="138.5" ry="43.5" transform="matrix(0.999, -0.035, 0.035, 0.999, 825.357, 704.76)" fill="#e9e9e9"/>
    <path id="빼기_1" data-name="빼기 1" d="M-2064.717,107.211h0l-13.75-39.933a76.417,76.417,0,0,1-4.028-30.316,76.983,76.983,0,0,1,2.465-14.684,77.609,77.609,0,0,1,5.2-13.842A77.651,77.651,0,0,1-2067.1-4.171a77.182,77.182,0,0,1,10.077-10.979,76.761,76.761,0,0,1,26.418-15.5,77.1,77.1,0,0,1,25.152-4.23,76.88,76.88,0,0,1,23.333,3.628,77.394,77.394,0,0,1,20.968,10.375,76.631,76.631,0,0,1,17.029,16.356,76.818,76.818,0,0,1,11.518,21.571l13.75,39.934-145.86,50.224Zm59.3-114.015a49.216,49.216,0,0,0-16.056,2.7A49.251,49.251,0,0,0-2052.018,58.4l8.777,25.49,93.1-32.058-8.777-25.491A49.182,49.182,0,0,0-2005.414-6.8Z" transform="translate(2936.857 512.562)" fill="#fff" stroke="#000" stroke-linejoin="round" stroke-width="3"/>
    <path id="사각형_43" data-name="사각형 43" d="M15,0H191a15,15,0,0,1,15,15V119a40,40,0,0,1-40,40H40A40,40,0,0,1,0,119V15A15,15,0,0,1,15,0Z" transform="translate(840.216 605.273) rotate(-19)" fill="#abb4f6" stroke="#000" stroke-width="3"/>
    <circle id="타원_17" data-name="타원 17" cx="26" cy="26" r="26" transform="translate(926.695 619.916) rotate(-19)"/>
    <rect id="사각형_44" data-name="사각형 44" width="20" height="49" rx="9" transform="translate(950.288 639.291) rotate(-19)"/>
  </g>
</svg>
