<svg xmlns="http://www.w3.org/2000/svg" width="65.256" height="72.941" viewBox="0 0 65.256 72.941">
  <path id="패스_2" data-name="패스 2" d="M-181.352,57.364s-3.074-30.206,33.655-28.47c19.246.91,25.792,15.613,23.691,29.995-1.779,12.2-9.128,11.893-11.693,21.962s5.36,17.121,2.779,19.233-28.849,1.971-32.294,1-2.339-3.184-1.728-6.4a54.836,54.836,0,0,0,.572-8.339s-9.454,1.581-11.826,1.025-2.863-.945-3.7-5.241a39.46,39.46,0,0,1-.572-8.7s-4.423-.991-5.9-2.339S-188.368,68.04-181.352,57.364Z" transform="translate(188.886 -28.823)" fill="#3c50e0"/>
</svg>
