<svg xmlns="http://www.w3.org/2000/svg" width="382.978" height="407.071" viewBox="0 0 382.978 407.071">
  <g id="paper" transform="translate(-4866.479 -560.536)">
    <path id="패스_280" data-name="패스 280" d="M2359.7,506.147c13.913-2.141,230.1-66.356,230.1-66.356s46.392,58.679,68.332,129.583,23.351,155.466,23.351,155.466l-235.1,67.063s2.409-87.386-19.263-158.825S2359.7,506.147,2359.7,506.147Z" transform="matrix(0.985, -0.174, 0.174, 0.985, 2469.353, 595.026)" fill="#fff" stroke="#000" stroke-width="3"/>
    <path id="패스_277" data-name="패스 277" d="M2359.7,506.147c13.913-2.141,230.1-66.356,230.1-66.356s46.392,58.679,68.332,129.583,23.351,155.466,23.351,155.466l-235.1,67.063s2.409-87.386-19.263-158.825S2359.7,506.147,2359.7,506.147Z" transform="translate(2566 162.973)" fill="#fff" stroke="#000" stroke-width="3"/>
    <path id="패스_279" data-name="패스 279" d="M5042.369,673.475l131.042-27.28s-186.577,62.355-183.654,62.355,175.373-42.869,175.373-42.869l-181.705,62.355L5189,676.885s-193.884,67.226-191.935,67.226,82.083-16.076,82.083-16.076" transform="translate(20.279 55.946)" fill="none" stroke="#e6e6e6" stroke-linecap="round" stroke-width="4"/>
    <path id="패스_278" data-name="패스 278" d="M0,0V185.9l6.832,12.131L13.687,185.9V0a8.575,8.575,0,0,0-6.55-3.178A10.425,10.425,0,0,0,0,0Z" transform="matrix(0.914, 0.407, -0.407, 0.914, 5174.965, 602.631)" fill="#5669f3"/>
  </g>
</svg>
