<svg xmlns="http://www.w3.org/2000/svg" width="27.669" height="26.516" viewBox="0 0 27.669 26.516">
  <g id="paper-plane" transform="translate(0 0)">
    <path id="패스_303" data-name="패스 303" d="M8.75,17.612v5.347a.864.864,0,0,0,1.561.512l3.128-4.256Z" transform="translate(1.338 2.692)" fill="#3c50e0"/>
    <path id="패스_304" data-name="패스 304" d="M27.306.16A.865.865,0,0,0,26.4.1L.465,13.644a.865.865,0,0,0,.12,1.585L7.8,17.694,23.153,4.563,11.269,18.881l12.086,4.131a.885.885,0,0,0,.279.046.864.864,0,0,0,.855-.737L27.66.993A.866.866,0,0,0,27.306.16Z" transform="translate(0 0)" fill="#3c50e0"/>
  </g>
</svg>
