<svg xmlns="http://www.w3.org/2000/svg" width="284.085" height="301.743" viewBox="0 0 284.085 301.743"><g transform="translate(-4866.479 -560.536)"><path d="M0,49C10.274,47.417,169.91,0,169.91,0s34.256,43.329,50.457,95.685,17.242,114.8,17.242,114.8L64.013,260s1.779-64.526-14.224-117.277S0,49,0,49Z" transform="matrix(0.985, -0.174, 0.174, 0.985, 4869.571, 603.761)" fill="#fff" stroke="#000" stroke-width="3"/><path d="M2359.7,488.789c10.274-1.581,169.91-49,169.91-49s34.256,43.329,50.457,95.685,17.242,114.8,17.242,114.8l-173.6,49.52s1.779-64.526-14.224-117.277S2359.7,488.789,2359.7,488.789Z" transform="translate(2551.317 152.44)" fill="#fff" stroke="#000" stroke-width="3"/><path d="M5026.95,666.338l96.762-20.144s-137.77,46.043-135.612,46.043,129.5-31.655,129.5-31.655l-134.172,46.043,151.8-37.77S4992.057,718.5,4993.5,718.5s60.611-11.87,60.611-11.87" transform="translate(-14.809 19.417)" fill="none" stroke="#e6e6e6" stroke-linecap="round" stroke-width="4"/><path d="M0,2.346V139.614l5.045,8.958,5.062-8.958V2.346A6.332,6.332,0,0,0,5.27,0,7.7,7.7,0,0,0,0,2.346Z" transform="matrix(0.914, 0.407, -0.407, 0.914, 5096.031, 589.99)" fill="#5669f3"/></g></svg>