<svg xmlns="http://www.w3.org/2000/svg" width="350.323" height="253.739" viewBox="0 0 350.323 253.739">
  <g id="image" transform="translate(-628.914 -300.522)">
    <path id="background" d="M127.385,46.1c-52.6-14.8-62.773-21.926-98.908,1.733S-14.252,153.949,37.3,176.795,124.2,149.887,177.689,158.83s59.437,20.2,98.9-2.4,63.284-110.164-.971-147.285S179.987,60.9,127.385,46.1Z" transform="translate(673.151 300.522) rotate(14)" fill="#e8ebfb"/>
    <g id="남자" transform="translate(773.846 313.241)">
      <path id="패스_262" data-name="패스 262" d="M1109.233,547.066l1.135,17.9s11.7,20.064,45.74,19.562,40.714-21.991,40.714-21.991l1.191-36.206Z" transform="translate(-1038.118 -412.162)" fill="#7d8ae5"/>
      <path id="hair" d="M143.186,1799.524c-3.923,6.948-3.555,11.6-2.032,17.1,1.647,5.954,1.97,12.561,2.719,13.514,9.2,11.7,27.045,22.425,39.489,18.328,1.813-3.755,7.368-7.858,10.537-12.915,1.295-2.066,9.018-19.307,3.687-31.243-4.628-10.36-15.57-16.247-22-14.637C172.282,1786.552,151.55,1784.711,143.186,1799.524Z" transform="translate(-59.248 -1787.513)"/>
      <path id="패스_235" data-name="패스 235" d="M-19.188,933.25S-3.2,935.415,7.115,944.8,22.5,964.372,21.836,976.971s-14.457,38.887-46.458,42.147-81.325-35.3-81.325-35.3L-121.47,961.8l15.523,2.768S-91,947.549-72.713,939.793A87.731,87.731,0,0,1-36.6,933.25Z" transform="translate(143.19 -866.375)" fill="#7d8ae5"/>
      <path id="패스_233" data-name="패스 233" d="M-124.379,1252.269c-7.183.928-16.13,8.156-16.13,19.356s.555,20.538,9.8,26.122,30.04.718,30.04-10.318c0-2.38.838-13.8-3.265-22.856C-108.075,1255.438-117.2,1251.341-124.379,1252.269Z" transform="translate(224.606 -1237.254)" fill="#fff"/>
      <path id="arm-line" d="M212.019,1951.935a44.065,44.065,0,0,0-12.46,9.1c-6,6.242-7.582,9.934-7.582,9.934s-21.639-7.5-51.6-8.188" transform="translate(-72.875 -1850.087)" fill="none" stroke="#000" stroke-linecap="round" stroke-width="1"/>
      <path id="패스_234" data-name="패스 234" d="M-33.33,904.83v21.8s-1.835,4.32-8.481,5.093-9.4-2.8-9.4-2.8l-2.3-15.5Z" transform="translate(157.333 -858.747)" fill="#fff"/>
      <path id="패스_246" data-name="패스 246" d="M-813.543,1241.337a123.034,123.034,0,0,0-1.948,14.248" transform="translate(893.096 -1143.017)" fill="none" stroke="#000" stroke-linecap="round" stroke-width="1"/>
      <path id="패스_249" data-name="패스 249" d="M18.663,6.941C7.977,15.449.331,6.875.331,6.875L0,0" transform="matrix(0.995, -0.105, 0.105, 0.995, 104.888, 63.33)" fill="none" stroke="#000" stroke-linecap="round" stroke-width="1"/>
      <path id="패스_253" data-name="패스 253" d="M0,0S4.571,4.259,8.47,1.154" transform="matrix(-0.951, -0.309, 0.309, -0.951, 114.492, 30.179)" fill="none" stroke="#000" stroke-linecap="round" stroke-width="1"/>
      <path id="패스_254" data-name="패스 254" d="M0,2.224S4.4-1.958,8.3,1.147" transform="translate(85.64 27.133) rotate(-20)" fill="none" stroke="#000" stroke-linecap="round" stroke-width="1"/>
      <ellipse id="타원_15" data-name="타원 15" cx="2.116" cy="2.646" rx="2.116" ry="2.646" transform="translate(104.936 35.154)"/>
      <ellipse id="타원_16" data-name="타원 16" cx="2.116" cy="2.646" rx="2.116" ry="2.646" transform="translate(89.592 33.567)"/>
      <path id="패스_259" data-name="패스 259" d="M184.861,46.99c-3.037-10.628-14.575-11.033-15.385-11.033s2.227-1.923,2.227-1.923-12.855,2.328-13.766,2.429,2.935-2.834,2.935-2.834-6.189.467-9.987,2.834A13.73,13.73,0,0,0,145.68,43.1c-.3,0,2.338-8.355,2.338-8.355s5.061-13.159,21.458-8.5S184.861,46.99,184.861,46.99Z" transform="translate(-61.447 -12.409)"/>
      <path id="패스_260" data-name="패스 260" d="M220.864,113.6v8.806" transform="translate(-96.333 -54.545)" fill="none" stroke="#000" stroke-linecap="round" stroke-width="1"/>
      <path id="패스_261" data-name="패스 261" d="M144.767,69.428s-1.414,28.884,23.361,26.693" transform="translate(-61.022 -33.215)" fill="none" stroke="#000" stroke-linecap="round" stroke-width="1"/>
      <path id="패스_263" data-name="패스 263" d="M92.487,244.592s29.145,19.856,59.082,17.632,43.884-20.9,43.884-20.9" transform="translate(-36.411 -114.161)" fill="none" stroke="#000" stroke-width="1"/>
      <path id="패스_270" data-name="패스 270" d="M2326.491,1198.99a56.7,56.7,0,0,0,13.455-.722,187.73,187.73,0,0,0,18.783-4.425l21.763,76.848s-7.4,2.077-17.609-2.709a113.872,113.872,0,0,1-15.741-8.686Z" transform="translate(-2326.491 -1136.762)" fill="#fff" stroke="#000" stroke-width="1"/>
      <g id="손" transform="translate(7.024 89.949)">
        <path id="패스_267" data-name="패스 267" d="M2392.277,1480.679s-1,3.105,2.724,3.745,6.052.871,6.147-.552S2392.277,1480.679,2392.277,1480.679Z" transform="translate(-2388.326 -1466.14)" fill="#fff" stroke="#000" stroke-width="1"/>
        <path id="패스_266" data-name="패스 266" d="M2386.615,1456.576s-2.144,2.936.778,4.145,8.519,4.447,9.584,1.828S2386.615,1456.576,2386.615,1456.576Z" transform="translate(-2383.069 -1446.02)" fill="#fff" stroke="#000" stroke-width="1"/>
        <path id="패스_265" data-name="패스 265" d="M2384.664,1428.583c-1,.051-3.917,2.58-1.686,4.139s8.192,4.287,8.565,1.913-4.585-3.963-4.585-3.963Z" transform="translate(-2379.982 -1422.654)" fill="#fff" stroke="#000" stroke-width="1"/>
        <path id="패스_264" data-name="패스 264" d="M2372.33,1393.032s-2.807-1.209-3.3,1.05,4.635,6.724,6.073,4.792c.837-1.124-.585-2.39-1.619-3.787A10.892,10.892,0,0,1,2372.33,1393.032Z" transform="translate(-2368.993 -1392.709)" fill="#fff" stroke="#000" stroke-width="1"/>
        <path id="패스_268" data-name="패스 268" d="M2513.516,1454.016c-1.924-1.788-4.225-2.2-9.191-5-6.362-3.584-14.728-7.065-17.51-7.3-4.932-.417-10.762-2.189-12.012.822-.753,1.816,1.95,2.8,5.424,3.725,2.019.54,4.462,1.083,6.356,1.8,4.771,1.8,6.325,3.081,6.136,3.238s-4.55-1.372-9.794-2.64-9.439-5.192-11.184-2.431,6.058,5.421,10.966,7.788,7.873,3.446,7.873,3.446-6.278-2.2-10.675-3.446-5.357-3.409-6.786-1.817,3.884,4.833,3.884,4.833.9,2.042,6.206,5.344,6.368,4.956,13.156,8.429,9.853,3.252,11.912,2.9a10.325,10.325,0,0,0,8.87-8.442C2518.448,1458.593,2515.44,1455.8,2513.516,1454.016Z" transform="translate(-2454.552 -1432.869)" fill="#fff" stroke="#000" stroke-width="1"/>
        <path id="패스_269" data-name="패스 269" d="M2504.6,1538.372s7,3.642,7.07,3.666,9.823,4.48,9.823,4.48" transform="translate(-2482.188 -1514.298)" fill="none" stroke="#000" stroke-width="1"/>
      </g>
    </g>
    <g id="여자" transform="translate(655.587 368.804)">
      <path id="hair-2" data-name="hair" d="M139.6,1833.38c13.184-23.185,18.259-47.373,40.713-46.846s29.494,18.436,30.983,22.21,4.064,16.615-2.36,41.766-12.681,28.311-33.021,35.5-46.928,3.331-48.338-6.74S126.418,1856.565,139.6,1833.38Z" transform="translate(-121.916 -1786.525)"/>
      <path id="패스_235-2" data-name="패스 235" d="M-68.6,933.25s-15.991,2.165-26.3,11.546-15.383,19.576-14.721,32.175,14.457,38.887,46.458,42.147,81.325-35.3,81.325-35.3l9.282-5.659-9.282-13.583S3.213,947.549-15.069,939.793a87.731,87.731,0,0,0-36.113-6.544Z" transform="translate(109.676 -865.852)" fill="#3c50e0"/>
      <path id="패스_233-2" data-name="패스 233" d="M-116.733,1252.269c7.183.928,16.13,8.156,16.13,19.356s-.555,20.538-9.8,26.122-30.04.718-30.04-10.318c0-2.38-.838-13.8,3.265-22.856C-133.037,1255.438-123.917,1251.341-116.733,1252.269Z" transform="translate(181.59 -1236.731)" fill="#fff"/>
      <path id="arm-line-2" data-name="arm-line" d="M154.885,1951.935a44.065,44.065,0,0,1,12.46,9.1c6,6.242,7.582,9.934,7.582,9.934s13.961-11.019,43.926-11.7" transform="translate(-128.945 -1849.565)" fill="none" stroke="#000" stroke-linecap="round" stroke-width="1"/>
      <path id="패스_234-2" data-name="패스 234" d="M-53.509,904.83v21.8s1.835,4.32,8.481,5.093,9.4-2.8,9.4-2.8l2.3-15.5Z" transform="translate(94.59 -858.225)" fill="#fff"/>
      <g id="그룹_1" data-name="그룹 1" transform="translate(34.57 39.835)">
        <path id="패스_236" data-name="패스 236" d="M-792.822,1507.2c-.705,3.737,4.215,12.385,8.944,18.126s9.31,4.293,10.866,4.582a43.387,43.387,0,0,0,11.78,1.063c10.036-.211,20.264-4.349,20.264-4.349a28.074,28.074,0,0,0,3.766-.906,2.227,2.227,0,0,0,1.4-1.722,16.683,16.683,0,0,0,3.943.648,3.235,3.235,0,0,0,2.809-1.236c.738-.875.241-2.52.241-2.52s2.614.093,3.682-.9.587-3.078.587-3.078,4.237-3.177-4.943-5.424-13.7-4.141-16.338-5.9-4.028-4.094-1.8-4.592,7.543.892,10.011.8,7.686-.724,6.1-3.434-4.762-2.719-14.316-3.989-14.678.3-22.745,3.254-9.384,9.016-9.384,9.016a1.989,1.989,0,0,1-1.682-.651c-1.608-1.422-4.383-4.37-7.269-4.2C-791.271,1502.049-792.117,1503.46-792.822,1507.2Z" transform="translate(846.935 -1439.114)" fill="#fff" stroke="#000" stroke-linecap="round" stroke-width="1"/>
        <path id="패스_237" data-name="패스 237" d="M-877.064,1150.574s-7.98-3.226-7.98,4.584,6.792,6.282,6.792,6.282Z" transform="translate(885.044 -1149.914)" fill="#fff"/>
        <path id="패스_239" data-name="패스 239" d="M-778.7,1544.192s11.12,9.6,14,6.238-4.475-6.374-6.618-9.33-2.053-3.76-2.053-3.76" transform="translate(837.975 -1466.16)" fill="none" stroke="#000" stroke-linecap="round" stroke-width="1"/>
        <path id="패스_240" data-name="패스 240" d="M-753.851,1528.081c6.193,2.788,17.044,10.511,17.044,10.511s2.723.673,6.168,1.324a59.5,59.5,0,0,1,7.594,1.844c4.991,1.37,11.554-2.17,12.368,3.634" transform="translate(821.866 -1460.786)" fill="none" stroke="#000" stroke-width="1"/>
        <path id="패스_241" data-name="패스 241" d="M-735.312,1567.806s1.383.759,7.052.922,12.214-.225,14.438-.171,7.521-1.006,6.474,1.543-7.715,3.852-15.059,5.187a107.948,107.948,0,0,1-15.021,1.481" transform="translate(811.919 -1485.762)" fill="none" stroke="#000" stroke-linecap="round" stroke-width="1"/>
        <path id="패스_242" data-name="패스 242" d="M-661.821,1544.362a30.174,30.174,0,0,0,8.213,2.055c1.863.115,3.807.269,5.44.474,4.747.6,6.076,1.573,6.076,1.573" transform="translate(764.184 -1470.961)" fill="none" stroke="#000" stroke-linecap="round" stroke-width="1"/>
        <path id="패스_243" data-name="패스 243" d="M-672,1555.959s3.758.694,7.687,1.2c1.807.231,4.15.168,5.712.494,4.69.977,5.853,2.256,5.853,2.256" transform="translate(770.614 -1478.283)" fill="none" stroke="#000" stroke-linecap="round" stroke-width="1"/>
      </g>
      <path id="패스_246-2" data-name="패스 246" d="M-814.408,1241.337a58.36,58.36,0,0,1,1.375,10.916" transform="translate(899.939 -1142.494)" fill="none" stroke="#000" stroke-linecap="round" stroke-width="1"/>
      <path id="패스_249-2" data-name="패스 249" d="M0,3.831s7.647-8.575,18.333-.066" transform="matrix(-0.995, -0.105, 0.105, -0.995, 58.748, 74.465)" fill="none" stroke="#000" stroke-linecap="round" stroke-width="1"/>
      <path id="패스_253-2" data-name="패스 253" d="M0,2.288S4.571-1.971,8.47,1.133" transform="translate(49.885 28.526) rotate(-18)" fill="none" stroke="#000" stroke-linecap="round" stroke-width="1"/>
      <path id="패스_254-2" data-name="패스 254" d="M0,0S4.4,4.182,8.3,1.077" transform="translate(78.683 29.746) rotate(-160)" fill="none" stroke="#000" stroke-linecap="round" stroke-width="1"/>
      <circle id="타원_15-2" data-name="타원 15" cx="2.5" cy="2.5" r="2.5" transform="translate(55.413 35.38)"/>
      <ellipse id="타원_16-2" data-name="타원 16" cx="2" cy="2.5" rx="2" ry="2.5" transform="translate(71.413 34.38)"/>
    </g>
    <g id="종이비행기" transform="translate(780.909 442.047)">
      <g id="그룹_5" data-name="그룹 5" transform="matrix(0.998, -0.07, 0.07, 0.998, 65.366, 3.942)">
        <path id="패스_257" data-name="패스 257" d="M1.492,13.151C2.367,13.151,49.329,0,49.329,0L0,1.711Z" transform="translate(7.181 6.991)" fill="#fff" stroke="#000" stroke-linecap="round" stroke-linejoin="round" stroke-width="1"/>
        <path id="패스_255" data-name="패스 255" d="M3,0c.867,0,46.331,7.03,46.331,7.03L14.508,8.21,0,8.7Z" transform="translate(7.181 0)" fill="#fff" stroke="#000" stroke-linecap="round" stroke-linejoin="round" stroke-width="1"/>
        <path id="패스_256" data-name="패스 256" d="M0,9.752C.867,9.752,56.1,0,56.1,0L7.181,1.711Z" transform="translate(0 6.991)" fill="#fff" stroke="#000" stroke-linecap="round" stroke-linejoin="round" stroke-width="1"/>
      </g>
      <path id="패스_258" data-name="패스 258" d="M1115.557,575.707s-16.456-.629-30.465,14.493-36.914,9.34-36.914,9.34" transform="translate(-1048.177 -562.103)" fill="none" stroke="#000" stroke-width="1" stroke-dasharray="10 7"/>
    </g>
  </g>
</svg>
