<svg xmlns="http://www.w3.org/2000/svg" width="662.094" height="479.555" viewBox="0 0 662.094 479.555">
  <g id="image" transform="translate(-628.914 -300.522)">
    <path id="background" d="M1034.391,406.242c-99.416-27.971-118.638-41.439-186.932,3.276S766.7,610.069,864.127,653.246s164.254-50.854,265.336-33.953,112.333,38.178,186.915-4.54,119.6-208.205-1.836-278.361S1133.807,434.213,1034.391,406.242Z" transform="translate(19.654 -201.11) rotate(14)" fill="#f3f5ff"/>
    <g id="남자" transform="translate(916.324 323.572)">
      <path id="패스_262" data-name="패스 262" d="M1109.233,565.522l2.145,33.824s22.107,37.92,86.447,36.971,76.948-41.562,76.948-41.562l2.251-68.428Z" transform="translate(-988.324 -309.572)" fill="#7d8ae5"/>
      <path id="hair" d="M145.951,1810.213c-7.414,13.13-6.718,21.931-3.841,32.326,3.113,11.252,3.723,23.74,5.138,25.54,17.388,22.111,51.114,42.382,74.633,34.64,3.426-7.1,13.925-14.851,19.914-24.409,2.447-3.905,17.044-36.49,6.968-59.048-8.746-19.581-29.426-30.707-41.571-27.663C200.941,1785.7,161.759,1782.216,145.951,1810.213Z" transform="translate(-0.807 -1786.525)"/>
      <path id="패스_235" data-name="패스 235" d="M71.839,933.311s30.223,4.092,49.71,21.822,29.073,37,27.822,60.81-27.323,73.494-87.8,79.656-153.7-66.722-153.7-66.722l-29.338-41.6,29.338,5.23s28.257-32.174,62.81-46.831S38.93,933.311,38.93,933.311Z" transform="translate(149.025 -805.933)" fill="#7d8ae5"/>
      <path id="패스_233" data-name="패스 233" d="M-110.024,1252.383c-13.576,1.753-30.485,15.415-30.485,36.581s1.049,38.816,18.513,49.369,56.774,1.358,56.774-19.5c0-4.5,1.583-26.077-6.171-43.2C-79.211,1258.372-96.447,1250.63-110.024,1252.383Z" transform="translate(285.953 -1223.017)" fill="#fff"/>
      <path id="arm-line" d="M275.78,1951.935a83.279,83.279,0,0,0-23.549,17.2c-11.333,11.8-14.329,18.775-14.329,18.775s-40.9-14.177-97.53-15.474" transform="translate(-26.301 -1758.46)" fill="none" stroke="#000" stroke-linecap="round" stroke-width="2"/>
      <path id="패스_234" data-name="패스 234" d="M-15.372,904.83v41.206S-18.839,954.2-31.4,955.66s-17.77-5.286-17.77-5.286l-4.339-29.285Z" transform="translate(236.236 -816.748)" fill="#fff"/>
      <path id="패스_246" data-name="패스 246" d="M-811.809,1241.337a232.527,232.527,0,0,0-3.682,26.928" transform="translate(948.666 -1054.528)" fill="none" stroke="#000" stroke-linecap="round" stroke-width="2"/>
      <path id="패스_249" data-name="패스 249" d="M34.648.125C14.452,16.206,0,0,0,0L-.625-12.993" transform="matrix(0.995, -0.105, 0.105, 0.995, 186.717, 133.535)" fill="none" stroke="#000" stroke-linecap="round" stroke-width="1.5"/>
      <path id="패스_253" data-name="패스 253" d="M0,0S8.639,8.049,16.007,2.182" transform="matrix(-0.951, -0.309, 0.309, -0.951, 202.889, 58.024)" fill="none" stroke="#000" stroke-linecap="round" stroke-width="1.5"/>
      <path id="패스_254" data-name="패스 254" d="M0,4.2S8.312-3.7,15.681,2.168" transform="translate(148.361 52.268) rotate(-20)" fill="none" stroke="#000" stroke-linecap="round" stroke-width="1.5"/>
      <ellipse id="타원_15" data-name="타원 15" cx="4" cy="5" rx="4" ry="5" transform="translate(184.829 67.428)"/>
      <ellipse id="타원_16" data-name="타원 16" cx="4" cy="5" rx="4" ry="5" transform="translate(155.829 64.428)"/>
      <path id="패스_259" data-name="패스 259" d="M219.753,66.344c-5.739-20.086-27.547-20.851-29.077-20.851s4.209-3.635,4.209-3.635-24.295,4.4-26.016,4.591,5.548-5.356,5.548-5.356-11.7.883-18.874,5.356S145.7,58.986,145.7,58.986c-.574,0,4.419-15.79,4.419-15.79s9.565-24.869,40.555-16.069S219.753,66.344,219.753,66.344Z"/>
      <path id="패스_260" data-name="패스 260" d="M220.864,113.6v16.642" transform="translate(1 -1)" fill="none" stroke="#000" stroke-linecap="round" stroke-width="1.5"/>
      <path id="패스_261" data-name="패스 261" d="M144.78,69.428s-2.673,54.589,44.151,50.449" fill="none" stroke="#000" stroke-linecap="round" stroke-width="1.5"/>
      <path id="패스_263" data-name="패스 263" d="M92.487,247.5s55.083,37.527,111.662,33.325,82.939-39.492,82.939-39.492" fill="none" stroke="#000" stroke-width="1.5"/>
      <path id="패스_270" data-name="패스 270" d="M2326.491,1203.571s10.2,1.067,25.43-1.365,35.5-8.363,35.5-8.363l41.131,145.238s-13.995,3.925-33.28-5.12-29.75-16.415-29.75-16.415Z" transform="translate(-2339.986 -1084.974)" fill="#fff" stroke="#000" stroke-width="1.5"/>
      <g id="손" transform="translate(-0.219 170.986)">
        <path id="패스_267" data-name="패스 267" d="M2392.386,1480.679s-1.893,5.869,5.148,7.079,11.438,1.647,11.617-1.042S2392.386,1480.679,2392.386,1480.679Z" transform="translate(-2384.92 -1453.201)" fill="#fff" stroke="#000" stroke-width="1.8"/>
        <path id="패스_266" data-name="패스 266" d="M2387.29,1456.576s-4.052,5.549,1.469,7.833,16.1,8.4,18.114,3.454S2387.29,1456.576,2387.29,1456.576Z" transform="translate(-2380.589 -1436.626)" fill="#fff" stroke="#000" stroke-width="1.8"/>
        <path id="패스_265" data-name="패스 265" d="M2386.894,1428.583c-1.883.1-7.4,4.876-3.187,7.822s15.481,8.1,16.188,3.615-8.666-7.49-8.666-7.49Z" transform="translate(-2378.045 -1417.377)" fill="#fff" stroke="#000" stroke-width="1.8"/>
        <path id="패스_264" data-name="패스 264" d="M2375.3,1393.32s-5.305-2.285-6.243,1.985,8.759,12.708,11.478,9.057c1.582-2.125-1.105-4.516-3.059-7.158A20.575,20.575,0,0,1,2375.3,1393.32Z" transform="translate(-2368.993 -1392.709)" fill="#fff" stroke="#000" stroke-width="1.8"/>
        <path id="패스_268" data-name="패스 268" d="M2550.915,1465.761c-3.637-3.379-7.984-4.16-17.37-9.447-12.024-6.773-27.835-13.353-33.093-13.8-9.321-.788-20.341-4.137-22.7,1.554-1.424,3.432,3.687,5.283,10.25,7.04,3.815,1.021,8.434,2.047,12.013,3.4,9.017,3.4,11.954,5.822,11.6,6.119s-8.6-2.593-18.51-4.989-17.841-9.812-21.137-4.595,11.45,10.246,20.726,14.718,14.879,6.513,14.879,6.513-11.864-4.159-20.175-6.513-10.125-6.443-12.824-3.434,7.341,9.135,7.341,9.135,1.7,3.86,11.73,10.1,12.035,9.367,24.865,15.931,18.621,6.146,22.513,5.478,14.31-3.353,16.764-15.956S2554.551,1469.139,2550.915,1465.761Z" transform="translate(-2439.476 -1425.792)" fill="#fff" stroke="#000" stroke-width="1.8"/>
        <path id="패스_269" data-name="패스 269" d="M2504.6,1538.372s13.223,6.883,13.361,6.929,18.566,8.467,18.566,8.467" transform="translate(-2462.242 -1492.873)" fill="none" stroke="#000" stroke-width="1.8"/>
      </g>
    </g>
    <g id="여자" transform="translate(1615 -667)">
      <path id="hair-2" data-name="hair" d="M150.813,1875.079c24.918-43.818,34.509-89.533,76.946-88.538s55.742,34.843,58.556,41.977,7.681,31.4-4.461,78.936-23.967,53.507-62.409,67.1-88.691,6.294-91.357-12.738S125.9,1918.9,150.813,1875.079Z" transform="translate(-1053.063 -689.953)"/>
      <path id="패스_235-2" data-name="패스 235" d="M-32.035,933.311s-30.223,4.092-49.71,21.822-29.073,37-27.822,60.81,27.323,73.494,87.8,79.656,153.7-66.722,153.7-66.722l17.543-10.7-17.543-25.672s-28.257-32.174-62.81-46.831S.874,933.311.874,933.311Z" transform="translate(-826 290.639)" fill="#3c50e0"/>
      <path id="패스_233-2" data-name="패스 233" d="M-95.574,1252.383c13.576,1.753,30.485,15.415,30.485,36.581s-1.049,38.816-18.513,49.369-56.774,1.358-56.774-19.5c0-4.5-1.583-26.077,6.171-43.2C-126.387,1258.372-109.15,1250.63-95.574,1252.383Z" transform="translate(-717.526 -126.445)" fill="#fff"/>
      <path id="arm-line-2" data-name="arm-line" d="M154.885,1951.935a83.279,83.279,0,0,1,23.549,17.2c11.333,11.8,14.329,18.775,14.329,18.775s26.385-20.824,83.018-22.122" transform="translate(-1041.535 -661.888)" fill="none" stroke="#000" stroke-linecap="round" stroke-width="2"/>
      <path id="패스_234-2" data-name="패스 234" d="M-53.509,904.83v41.206s3.468,8.164,16.029,9.625,17.77-5.286,17.77-5.286l4.339-29.285Z" transform="translate(-804.526 279.824)" fill="#fff"/>
      <g id="그룹_1" data-name="그룹 1" transform="translate(-870.339 1171.858)">
        <path id="패스_236" data-name="패스 236" d="M-792.762,1519.015c-1.333,7.064,7.966,23.408,16.9,34.258s17.6,8.114,20.536,8.659c5.372,1,9.537,2.277,22.264,2.009,18.967-.4,38.3-8.22,38.3-8.22a53.059,53.059,0,0,0,7.118-1.712,4.209,4.209,0,0,0,2.651-3.254s4.722,1.346,7.452,1.224,3.913-.682,5.308-2.335.455-4.762.455-4.762,4.941.176,6.958-1.7,1.11-5.818,1.11-5.818,8.008-6.006-9.342-10.252-25.884-7.826-30.878-11.158-7.613-7.738-3.4-8.679,14.256,1.685,18.92,1.517,14.527-1.368,11.533-6.491-9-5.139-27.056-7.538-27.742.559-42.986,6.149-17.735,17.041-17.735,17.041-1.379.359-3.178-1.23c-3.04-2.688-8.284-8.259-13.738-7.93C-789.83,1509.286-791.429,1511.951-792.762,1519.015Z" transform="translate(895.032 -1390.34)" fill="#fff" stroke="#000" stroke-linecap="round" stroke-width="2"/>
        <path id="패스_237" data-name="패스 237" d="M-869.962,1151.161s-15.082-6.1-15.082,8.664,12.836,11.873,12.836,11.873Z" transform="translate(885.044 -1149.914)" fill="#fff"/>
        <path id="패스_239" data-name="패스 239" d="M-778.7,1550.29s21.017,18.146,26.451,11.79-8.458-12.046-12.508-17.633-3.88-7.106-3.88-7.106" transform="translate(890.729 -1402.812)" fill="none" stroke="#000" stroke-linecap="round" stroke-width="2"/>
        <path id="패스_240" data-name="패스 240" d="M-753.851,1528.081c11.7,5.27,32.213,19.865,32.213,19.865s5.147,1.271,11.657,2.5,4.921.9,14.353,3.486,21.837-4.1,23.375,6.869" transform="translate(882.395 -1400.897)" fill="none" stroke="#000" stroke-width="2"/>
        <path id="패스_241" data-name="패스 241" d="M-733.428,1567.806s2.614,1.435,13.328,1.743,23.083-.425,27.286-.323,14.215-1.9,12.236,2.916-14.581,7.279-28.461,9.8a203.992,203.992,0,0,1-28.388,2.8" transform="translate(878.212 -1412.748)" fill="none" stroke="#000" stroke-linecap="round" stroke-width="2"/>
        <path id="패스_242" data-name="패스 242" d="M-661.821,1544.362s8.22,3.431,15.522,3.883c3.522.218,7.2.508,10.282.9,8.971,1.128,11.482,2.973,11.482,2.973" transform="translate(855.283 -1405.638)" fill="none" stroke="#000" stroke-linecap="round" stroke-width="2"/>
        <path id="패스_243" data-name="패스 243" d="M-672,1555.959s7.1,1.313,14.528,2.264c3.415.438,7.844.318,10.8.933,8.863,1.847,11.062,4.265,11.062,4.265" transform="translate(858.371 -1409.155)" fill="none" stroke="#000" stroke-linecap="round" stroke-width="2"/>
      </g>
      <path id="패스_246-2" data-name="패스 246" d="M-814.408,1241.337a110.288,110.288,0,0,1,2.6,20.63" transform="translate(40.381 42.044)" fill="none" stroke="#000" stroke-linecap="round" stroke-width="2"/>
      <path id="패스_249-2" data-name="패스 249" d="M0,7.24S14.452-8.966,34.648,7.115" transform="matrix(-0.995, -0.105, 0.105, -0.995, -824.645, 1237.307)" fill="none" stroke="#000" stroke-linecap="round" stroke-width="2"/>
      <path id="패스_253-2" data-name="패스 253" d="M0,2.641S8.639-5.408,16.007.46" transform="translate(-840.876 1152.084) rotate(-18)" fill="none" stroke="#000" stroke-linecap="round" stroke-width="1.5"/>
      <path id="패스_254-2" data-name="패스 254" d="M0,0S8.312,7.9,15.681,2.036" transform="translate(-786.969 1152.79) rotate(-160)" fill="none" stroke="#000" stroke-linecap="round" stroke-width="1.5"/>
      <ellipse id="타원_15-2" data-name="타원 15" cx="4" cy="5" rx="4" ry="5" transform="translate(-830 1164)"/>
      <ellipse id="타원_16-2" data-name="타원 16" cx="4" cy="5" rx="4" ry="5" transform="translate(-801 1161)"/>
    </g>
    <g id="종이비행기" transform="translate(-49 35)">
      <g id="그룹_5" data-name="그룹 5" transform="matrix(0.998, -0.07, 0.07, 0.998, -15.149, 63.612)">
        <path id="패스_257" data-name="패스 257" d="M1167.306,607.745c1.653,0,90.409-24.855,90.409-24.855l-93.229,3.233Z" transform="translate(-83 -17)" fill="#fff" stroke="#000" stroke-linecap="round" stroke-linejoin="round" stroke-width="1.5"/>
        <path id="패스_255" data-name="패스 255" d="M1170.152,569.677c1.639,0,87.563,13.287,87.563,13.287l-65.81,2.23-27.42.929Z" transform="translate(-83 -17)" fill="#fff" stroke="#000" stroke-linecap="round" stroke-linejoin="round" stroke-width="1.5"/>
        <path id="패스_256" data-name="패스 256" d="M1150.915,601.321c1.639,0,106.032-18.431,106.032-18.431l-92.461,3.233Z" transform="translate(-83 -17)" fill="#fff" stroke="#000" stroke-linecap="round" stroke-linejoin="round" stroke-width="1.5"/>
      </g>
      <path id="패스_258" data-name="패스 258" d="M1175.522,575.711s-31.1-1.189-57.578,27.391-69.766,17.652-69.766,17.652" transform="translate(-83 -17)" fill="none" stroke="#000" stroke-width="1" stroke-dasharray="10 7"/>
    </g>
  </g>
</svg>
