<svg xmlns="http://www.w3.org/2000/svg" xmlns:xlink="http://www.w3.org/1999/xlink" width="86" height="86" viewBox="0 0 86 86"><defs><filter id="a" x="0" y="0" width="86" height="86" filterUnits="userSpaceOnUse"><feOffset input="SourceAlpha"/><feGaussianBlur stdDeviation="5" result="b"/><feFlood flood-opacity="0.102"/><feComposite operator="in" in2="b"/><feComposite in="SourceGraphic"/></filter><filter id="c" x="0" y="0" width="86" height="86" filterUnits="userSpaceOnUse"><feOffset input="SourceAlpha"/><feGaussianBlur stdDeviation="5" result="d"/><feFlood flood-opacity="0.102"/><feComposite operator="in" in2="d"/><feComposite in="SourceGraphic"/></filter><clipPath id="e"><g transform="matrix(1, 0, 0, 1, 0, 0)" filter="url(#a)"><circle cx="28" cy="28" r="28" transform="translate(1475 18)" fill="#fff"/></g></clipPath></defs><g transform="translate(-1460 -3)"><g transform="matrix(1, 0, 0, 1, 1460, 3)" filter="url(#c)"><circle cx="28" cy="28" r="28" transform="translate(15 15)" fill="#5669f3"/></g><g clip-path="url(#e)"><circle cx="11" cy="11" r="11" transform="translate(1492 30)" fill="#d6dbff"/><ellipse cx="20" cy="13" rx="20" ry="13" transform="translate(1483 52)" fill="#d6dbff"/><path d="M1494.711,48.867s2,.8,2,2.536a1.538,1.538,0,0,1-1.632,1.65h6.648V49.662Z" transform="translate(2.289)" fill="#d6dbff"/><path d="M1501.725,48.867s-2,.8-2,2.536a1.538,1.538,0,0,0,1.632,1.65h-6.648V49.662Z" transform="translate(7.289)" fill="#d6dbff"/></g><g transform="translate(-3 1)"><circle cx="1.5" cy="1.5" r="1.5" transform="translate(1500 38)" fill="#5669f3"/><circle cx="1.5" cy="1.5" r="1.5" transform="translate(1509 38)" fill="#5669f3"/><path d="M7350.071,2762.877a5.7,5.7,0,0,0,2.327.622,5.8,5.8,0,0,0,2.341-.622" transform="translate(-5846.448 -2720)" fill="none" stroke="#5669f3" stroke-linecap="round" stroke-width="1.4"/></g></g></svg>