<svg xmlns="http://www.w3.org/2000/svg" width="57" height="57" viewBox="0 0 57 57">
  <g id="profile" transform="translate(-5439 -3880)">
    <rect id="사각형_103" data-name="사각형 103" width="57" height="57" transform="translate(5439 3880)" fill="#5669f3"/>
    <g id="그룹_29" data-name="그룹 29" transform="translate(73 -3)">
      <circle id="타원_40" data-name="타원 40" cx="11" cy="11" r="11" transform="translate(5384 3892)" fill="#d6dbff"/>
      <path id="패스_292" data-name="패스 292" d="M20,0C42.53,0,44.933,26,44.933,26H-5.786S-2.53,0,20,0Z" transform="translate(5375 3914)" fill="#d6dbff"/>
      <path id="패스_290" data-name="패스 290" d="M1494.711,48.867s2,.8,2,2.536a1.538,1.538,0,0,1-1.632,1.65h6.648V49.662Z" transform="translate(3894.289 3862)" fill="#d6dbff"/>
      <path id="패스_291" data-name="패스 291" d="M1501.725,48.867s-2,.8-2,2.536a1.538,1.538,0,0,0,1.632,1.65h-6.648V49.662Z" transform="translate(3899.289 3862)" fill="#d6dbff"/>
      <g id="face" transform="translate(3889 3863)">
        <circle id="타원_38" data-name="타원 38" cx="1.5" cy="1.5" r="1.5" transform="translate(1500 38)" fill="#5669f3"/>
        <circle id="타원_39" data-name="타원 39" cx="1.5" cy="1.5" r="1.5" transform="translate(1509 38)" fill="#5669f3"/>
        <path id="패스_289" data-name="패스 289" d="M7350.071,2762.877a5.7,5.7,0,0,0,2.327.622,5.8,5.8,0,0,0,2.341-.622" transform="translate(-5846.448 -2720)" fill="none" stroke="#5669f3" stroke-linecap="round" stroke-width="1.4"/>
      </g>
    </g>
  </g>
</svg>
