<svg xmlns="http://www.w3.org/2000/svg" xmlns:xlink="http://www.w3.org/1999/xlink" width="340" height="340" viewBox="0 0 340 340"><defs><filter id="a" x="0" y="0" width="340" height="340" filterUnits="userSpaceOnUse"><feOffset input="SourceAlpha"/><feGaussianBlur stdDeviation="20" result="b"/><feFlood flood-opacity="0.102"/><feComposite operator="in" in2="b"/><feComposite in="SourceGraphic"/></filter><clipPath id="c"><rect width="220" height="220" rx="36" transform="translate(791 186)" fill="#ebedff"/></clipPath></defs><g transform="translate(-731 -126)"><g transform="matrix(1, 0, 0, 1, 731, 126)" filter="url(#a)"><rect width="220" height="220" rx="36" transform="translate(60 60)" fill="#fff"/></g><g clip-path="url(#c)"><g transform="translate(799.873 225.931)"><ellipse cx="46.5" cy="46" rx="46.5" ry="46" transform="translate(55.126 0.07)" fill="#5669f3"/><ellipse cx="101.5" cy="87" rx="101.5" ry="87" transform="translate(0.126 92.07)" fill="#5669f3"/><g transform="translate(76.312 37.268)"><circle cx="6" cy="6" r="6" transform="translate(0.815 -0.199)" fill="#ebedff"/><circle cx="6" cy="6" r="6" transform="translate(36.815 -0.199)" fill="#ebedff"/><path d="M7350.07,2762.876a24.13,24.13,0,0,0,9.851,2.632,24.565,24.565,0,0,0,9.912-2.632" transform="translate(-7335.048 -2741.801)" fill="none" stroke="#ebedff" stroke-linecap="round" stroke-width="6"/></g><path d="M1494.711,48.867s8.459,3.4,8.459,10.738-6.911,6.985-6.911,6.985H1524.4V52.233Z" transform="translate(-1418.715 30.602)" fill="#5669f3"/><path d="M1524.4,48.867s-8.459,3.4-8.459,10.738,6.91,6.985,6.91,6.985h-28.145V52.233Z" transform="translate(-1397.547 30.602)" fill="#5669f3"/></g></g></g></svg>