<svg xmlns="http://www.w3.org/2000/svg" width="25.883" height="25.958" viewBox="0 0 25.883 25.958">
  <g id="search" transform="translate(-0.49 -0.001)">
    <path id="패스_287" data-name="패스 287" d="M26.047,22.3l-6.215-6.421c-.446-.461-1-.645-1.244-.41s-.8.05-1.245-.411l-.089-.092a9.309,9.309,0,1,0-1.605,1.655l.039.041c.445.461.611,1.023.368,1.258s-.077.8.369,1.257l6.212,6.423a1.161,1.161,0,0,0,1.641.027l1.743-1.687A1.163,1.163,0,0,0,26.047,22.3Zm-11.673-8.42a6.434,6.434,0,1,1,0-9.1A6.442,6.442,0,0,1,14.374,13.885Z" transform="translate(0 0)" fill="#3c50e0"/>
  </g>
</svg>
